<?xml version="1.0" encoding="UTF-8"?>
<svg id="katman_1" xmlns="http://www.w3.org/2000/svg" version="1.1" viewBox="0 0 566.93 425.2">
  <!-- Generator: Adobe Illustrator 29.3.0, SVG Export Plug-In . SVG Version: 2.1.0 Build 146)  -->
  <g>
    <path d="M109.92,277.18c0,2.76,0,4.85-.26,9.03-.6,11.31-7.09,19.19-21.26,19.19s-20.48-8.46-20.83-21.85l-.09-3.33h11.92l.17,3.33c.43,8.74,3.89,12.07,9.51,12.07s8.3-3.9,8.81-10.17c.09-2.09.09-4.28.09-6.94v-40h11.92v38.67Z"/>
    <path d="M132.56,241.65c0,4.18-2.68,6.94-6.57,6.94s-6.57-2.75-6.57-6.94,2.68-6.93,6.57-6.93,6.57,2.85,6.57,6.93ZM120.03,304.06v-50.54h11.92v50.54h-11.92Z"/>
    <path d="M187.61,278.79c0,15.29-8.55,26.6-23.85,26.6s-23.85-11.31-23.85-26.6,8.55-26.6,23.85-26.6,23.85,11.21,23.85,26.6ZM175.25,278.79c0-10.92-4.32-17.38-11.49-17.38s-11.49,6.46-11.49,17.38,4.32,17.39,11.49,17.39,11.49-6.56,11.49-17.39Z"/>
    <path d="M249.3,304.06h-11.84v-26.89h-27.91v26.89h-11.92v-65.55h11.92v28.21h27.91v-28.21h11.84v65.55Z"/>
    <path d="M304.95,278.79c0,15.29-8.55,26.6-23.85,26.6s-23.85-11.31-23.85-26.6,8.55-26.6,23.85-26.6,23.85,11.21,23.85,26.6ZM292.6,278.79c0-10.92-4.32-17.38-11.49-17.38s-11.49,6.46-11.49,17.38,4.32,17.39,11.49,17.39,11.49-6.56,11.49-17.39Z"/>
    <path d="M326.99,285.92c0,1.71,0,3.14.09,4.47.35,4.94,1.99,6.08,8.64,5.51v8.55c-2.68.48-5.18.67-7.86.67-8.9,0-12.1-3.23-12.62-10.36-.17-2.28-.17-4.46-.17-7.31v-24.89h-6.74v-8.64h6.74v-12.45h11.92v12.45h9.51v8.64h-9.51v23.37Z"/>
    <path d="M378.58,268.15h-11.92c-.78-4.66-3.11-7.32-7.09-7.32-3.54,0-5.44,2.28-5.44,5.42,0,3.8,2.85,5.79,10.46,7.88,9.42,2.66,14.95,6.84,14.95,16.15,0,10.17-8.38,15.11-18.92,15.11-11.15,0-19.01-5.32-20.31-16.72h11.92c.95,5.51,4.41,8.08,8.55,8.08,3.8,0,6.74-1.8,6.74-5.51,0-3.9-3.02-6.08-10.97-8.26-8.55-2.38-14.43-6.46-14.43-15.2,0-9.69,7.26-15.58,18.23-15.58s17.2,6.75,18.23,15.96Z"/>
    <path d="M401.13,285.92c0,1.71,0,3.14.09,4.47.35,4.94,1.99,6.08,8.64,5.51v8.55c-2.68.48-5.18.67-7.86.67-8.9,0-12.1-3.23-12.62-10.36-.17-2.28-.17-4.46-.17-7.31v-24.89h-6.74v-8.64h6.74v-12.45h11.92v12.45h9.51v8.64h-9.51v23.37Z"/>
    <path d="M443.9,296.65l-2.25,5.42c-3.2,2.38-7.09,3.33-11.41,3.33-7.95,0-14.78-5.13-14.78-14.73,0-11.12,8.64-17.38,25.32-17.38h2.94v-1.04c0-1.52,0-3.04-.17-4.75-.35-3.52-2.42-6.08-7.08-6.08s-7.34,3.04-7.69,8.55l-11.58.09c.35-11.4,8.73-17.86,19.7-17.86,12.88,0,17.71,6.18,18.41,14.92.17,2.38.26,5.04.26,7.79v16.34c0,3.8.17,7.22.86,12.83h-11.67l-.86-7.41ZM443.73,285.44v-4.08c-9.5-.76-15.9,1.62-15.9,8.26,0,4.46,2.77,6.56,7,6.56,4.84,0,8.9-3.71,8.9-10.74Z"/>
    <path d="M493.42,252.67v10.54c-9.94-.76-14.86,4.08-14.86,17.67v23.18h-11.92v-50.54h11.92v9.22l3.63-7.03c2.25-2.28,5.27-3.42,7.86-3.42,1.38,0,2.33.09,3.37.38Z"/>
  </g>
  <path d="M263.55,224.81l25.01-63.77,48.76,9.59-38.34-28.76,66.27-70.85s-75.85,54.6-77.1,52.93-2.5-47.51-4.17-45.43-14.59,40.84-14.59,40.84l-26.26-14.59,13.75,26.26-65.85-12.09s62.52,28.76,60.43,30.01-32.51,26.67-32.51,26.67c0,0,45.43-13.34,45.01-11.67s-.42,60.85-.42,60.85Z"/>
</svg>