<svg clip-rule="evenodd" fill-rule="evenodd" height="322" stroke-linejoin="round" stroke-miterlimit="2" viewBox="138.102 310.001 2085.003 561" width="2500" xmlns="http://www.w3.org/2000/svg"><path d="m138.102 310.001h83.062l115.159 316.867v-316.867h87.916v525.751s-57.116 4.207-96.216 10.61l-101.149-290.704v303.132s-68.274 9.157-88.772 12.211zm370.789 517.79s214.772-18.353 243.096-18.112v-86.015s-122.362 7.348-155.254 9.904v-130.353h118.57v-87.315h-119.132v-117.791h156.055v-88.108h-243.256zm299.964-517.79h271.281v88.337h-91.331v401.6s-63.461 1.256-87.966 2.813v-404.533h-92.086zm327.885 0h244.981v88.253h-156.615v112.618h117.983v86.296h-117.302v200.528s-49.802-.45-89.124-.007zm301.51 0h87.075v408.816s117.43 5.549 150.714 8.321v86.803s-189.226-11.732-238.011-11.19zm311.16 0h87.099v516.229s-73.922-7.56-88.058-7.475zm161.2 0h95.122l57.093 147.959 64.14-147.959h96.14l-114.555 266.281 114.555 294.719s-83.71-12.311-99.742-13.44l-64.531-165.386-65.273 149.529s-71.426-8.065-91.53-9.347l111.327-258.146z" fill="#e50914"/></svg>