<?xml version="1.0" encoding="utf-8"?>
<!-- Generator: Adobe Illustrator 25.0.1, SVG Export Plug-In . SVG Version: 6.00 Build 0)  -->
<svg version="1.0" id="Layer_1" xmlns="http://www.w3.org/2000/svg" xmlns:xlink="http://www.w3.org/1999/xlink" x="0px" y="0px"
	 viewBox="0 0 1209.8 836.7" style="enable-background:new 0 0 1209.8 836.7;" xml:space="preserve">
<style type="text/css">
	.st0{fill:none;}
	.st1{fill:#22BBBE;}
	.st2{fill:#7DAD41;}
	.st3{fill:#F4B719;}
	.st4{fill:#E55824;}
	.st5{fill:#B52C80;}
	.st6{fill:#1D1D1B;}
	.st7{fill:#FFFFFF;}
</style>
<path class="st0" d="M237.8,53.7h367.1V783H237.8V53.7z"/>
<path class="st1" d="M604.9,77.9V53.7c-202.8,0-367.1,163.2-367.1,364.6S402.2,783,604.9,783v-24.2c-131.6-0.1-257-76-313.5-203.4
	c-76.2-172,2.4-372.9,175.6-448.6C510.5,87.8,557.5,77.9,604.9,77.9"/>
<path class="st2" d="M476.8,129.1l-9.9-22.2c-173.2,75.7-251.8,276.5-175.6,448.6s278.4,250.2,451.6,174.5l-9.9-22.2
	c-89.6,39-196,36.7-287.2-15.6c-152.2-87.3-204.3-280.5-116.4-431.7C363.3,202,414.9,156,476.8,129.1"/>
<path class="st3" d="M751.8,165.6l12.2-20.9c-152.2-87.3-346.7-35.5-434.6,115.7S293.7,604.8,445.8,692l12.2-21
	c-24.4-14-46.6-31.5-66-51.9c-111.7-116.8-106.8-301.5,10.9-412.4C499.5,115.7,642.1,102.7,751.8,165.6"/>
<path class="st4" d="M419.6,224.4l-16.8-17.5c-117.6,110.9-122.6,295.5-10.9,412.3S689.4,740.9,807.1,630l-16.8-17.6
	c-65.1,61.3-156.3,86.4-243.6,67.1c-145.1-32-236.7-174.8-204.6-319C353.7,308.4,380.7,260.9,419.6,224.4"/>
<path class="st5" d="M657.9,181l5.3-23.8c-145.2-32-288.9,59-321.1,203.2s59.4,287,204.6,318.9l5.2-23.7l0,0
	c-132-29.1-215.2-158.9-186-290C395.1,234.6,525.9,152,657.8,181L657.9,181"/>
<path class="st6" d="M784.7,455.4h62c1.3-8.7,2.2-17.4,2.6-26.1l-64.6,0.3L784.7,455.4L784.7,455.4z M784.7,380.5v24.9l64.4-0.3
	c-0.4-8.2-1.3-16.5-2.6-24.6H784.7z"/>
<path class="st6" d="M757.6,479.4V356.5h83.8c-27.5-104.3-123.1-181.2-236.7-181.2C469.6,175.3,360,284.1,360,418.4
	s109.6,243.1,244.7,243.1c113.9,0,209.6-77.3,236.9-182L757.6,479.4L757.6,479.4z"/>
<path class="st6" d="M881.1,462.6l13.4-15.6c9.9,9.1,20.3,14.7,31.7,14.7c14.8,0,24.5-8.4,24.5-21.2v-0.3
	c0-12.4-10.6-20.3-25.5-20.3c-7.9,0.1-15.6,2-22.7,5.4l-13-8.6l3.5-60h73.6v19.1h-55l-2,28.7c6.2-2.4,12.9-3.6,19.6-3.5
	c24,0,42.8,12.6,42.8,38.5v0.4c0,25-18.3,41.5-45.6,41.5C907.5,481.4,892.7,473.9,881.1,462.6"/>
<path class="st7" d="M724.8,380.6h-67.2v24.9h67.2v24.1h-67.2v25.8h67.2v24.1h-94.2V356.5h94.2L724.8,380.6z M602.1,377l-68.1,78.7
	h68.1v23.7H499.1v-20.5l68.1-78.7h-65.9v-23.7h101L602.1,377z M849.1,405.2h-0.9l-63.6,0.3v-24.9h61.9c-1.3-8.1-3-16.1-5.1-24.1
	h-83.9v123h84.1c2.1-7.9,3.7-16,5-24.1h-62v-25.9l63.7-0.3h0.9C849.6,421.2,849.5,413.2,849.1,405.2"/>
</svg>
